<svg width="0" height="0" class="hidden">
  <symbol xmlns="http://www.w3.org/2000/svg" viewBox="0 0 24 24" id="circle_chev_right">
    <g id="Circle_Chev_Right">
      <g>
        <path d="M13.85,11.65a.492.492,0,0,1,0,.7l-3,3a.495.495,0,0,1-.7-.7L12.79,12,10.15,9.35a.495.495,0,0,1,.7-.7Z"></path>
        <path d="M12,2.067A9.933,9.933,0,1,1,2.067,12,9.944,9.944,0,0,1,12,2.067Zm0,18.866A8.933,8.933,0,1,0,3.067,12,8.943,8.943,0,0,0,12,20.933Z"></path>
      </g>
    </g>
  </symbol>
  <symbol xmlns="http://www.w3.org/2000/svg" xmlns:xlink="http://www.w3.org/1999/xlink" viewBox="0 0 32 32" id="Close">
    <path d="M24 9.4L22.6 8L16 14.6L9.4 8L8 9.4l6.6 6.6L8 22.6L9.4 24l6.6-6.6l6.6 6.6l1.4-1.4l-6.6-6.6L24 9.4z" fill="currentColor"></path>
  </symbol>
  <symbol xmlns="http://www.w3.org/2000/svg" viewBox="0 0 24 24" id="mail">
    <g id="Mail">
      <path d="M19.435,4.065H4.565a2.5,2.5,0,0,0-2.5,2.5v10.87a2.5,2.5,0,0,0,2.5,2.5h14.87a2.5,2.5,0,0,0,2.5-2.5V6.565A2.5,2.5,0,0,0,19.435,4.065Zm-14.87,1h14.87a1.489,1.489,0,0,1,1.49,1.39c-2.47,1.32-4.95,2.63-7.43,3.95a6.172,6.172,0,0,1-1.06.53,2.083,2.083,0,0,1-1.67-.39c-1.42-.75-2.84-1.51-4.25-2.26-1.14-.6-2.3-1.21-3.44-1.82A1.491,1.491,0,0,1,4.565,5.065Zm16.37,12.37a1.5,1.5,0,0,1-1.5,1.5H4.565a1.5,1.5,0,0,1-1.5-1.5V7.6c2.36,1.24,4.71,2.5,7.07,3.75a5.622,5.622,0,0,0,1.35.6,2.872,2.872,0,0,0,2-.41c1.45-.76,2.89-1.53,4.34-2.29,1.04-.56,2.07-1.1,3.11-1.65Z"></path>
    </g>
  </symbol>
  <symbol version="1.1" xmlns="http://www.w3.org/2000/svg" xmlns:xlink="http://www.w3.org/1999/xlink" x="0px" y="0px" enable-background="new 0 0 512 512" xml:space="preserve" viewBox="0 0 512 512" id="menu">
    <g>
      <path d="M432,176H80c-8.8,0-16-7.2-16-16l0,0c0-8.8,7.2-16,16-16h352c8.8,0,16,7.2,16,16l0,0C448,168.8,440.8,176,432,176z"></path>
      <path d="M432,272H80c-8.8,0-16-7.2-16-16l0,0c0-8.8,7.2-16,16-16h352c8.8,0,16,7.2,16,16l0,0C448,264.8,440.8,272,432,272z"></path>
      <path d="M432,368H80c-8.8,0-16-7.2-16-16l0,0c0-8.8,7.2-16,16-16h352c8.8,0,16,7.2,16,16l0,0C448,360.8,440.8,368,432,368z"></path>
    </g>
  </symbol>

  <symbol xmlns="http://www.w3.org/2000/svg" viewBox="0 0 512 512" id="contrast-outline">
    <title>Contrast</title>
    <circle cx="256" cy="256" r="208" fill="none" stroke="currentColor" stroke-linejoin="round" stroke-width="32"></circle>
    <path d="M256 464c-114.88 0-208-93.12-208-208S141.12 48 256 48z"></path>
  </symbol>
  <symbol fill="none" xmlns="http://www.w3.org/2000/svg" viewBox="0 0 301 317" id="ashish-jaiswar-logo">
    <line x1="147.236" y1="5.11326" x2="4.53147" y2="311.113" stroke="#202020" stroke-width="10"></line>
    <line x1="295.536" y1="314.015" x2="151.463" y2="3.10223" stroke="#202020" stroke-width="10"></line>
    <path d="M123 248L8.99997 313.5L292.5 316.5L177.5 248V239.5L211 223L177.5 207V198.5L149.5 14.5L123 198.5V207L91 223L123 239.5V248Z" fill="#F9F9F9"></path>
    <path d="M79.6818 225.455V220L123.591 197.636V206.364L89.9091 222.591L90.1818 222.045V223.409L89.9091 222.864L123.591 239.091V247.818L79.6818 225.455ZM165.327 176.909L142.827 260.5H135.463L157.963 176.909H165.327ZM221.091 225.455L177.182 247.818V239.091L210.864 222.864L210.591 223.409V222.045L210.864 222.591L177.182 206.364V197.636L221.091 220V225.455Z" fill="#202020"></path>
    <path d="M8.49997 314L150 11.5L123 197.5L79.5 220V225L123 247.5L8.49997 314Z" fill="#82E38C"></path>
    <path d="M177.5 198L149.5 12L292.5 316.5L177.5 247.5L220.5 225.5V219.5L177.5 198Z" fill="#82E38C"></path>
    <path d="M145 1L143 3L147 5L156 1H145Z" fill="#202020" stroke="#202020"></path>
  </symbol>
  <symbol role="img" xmlns="http://www.w3.org/2000/svg" viewBox="0 0 24 24" id="github">
    <title>GitHub</title>
    <path d="M12 .297c-6.63 0-12 5.373-12 12 0 5.303 3.438 9.8 8.205 11.385.6.113.82-.258.82-.577 0-.285-.01-1.04-.015-2.04-3.338.724-4.042-1.61-4.042-1.61C4.422 18.07 3.633 17.7 3.633 17.7c-1.087-.744.084-.729.084-.729 1.205.084 1.838 1.236 1.838 1.236 1.07 1.835 2.809 1.305 3.495.998.108-.776.417-1.305.76-1.605-2.665-.3-5.466-1.332-5.466-5.93 0-1.31.465-2.38 1.235-3.22-.135-.303-.54-1.523.105-3.176 0 0 1.005-.322 3.3 1.23.96-.267 1.98-.399 3-.405 1.02.006 2.04.138 3 .405 2.28-1.552 3.285-1.23 3.285-1.23.645 1.653.24 2.873.12 3.176.765.84 1.23 1.91 1.23 3.22 0 4.61-2.805 5.625-5.475 5.92.42.36.81 1.096.81 2.22 0 1.606-.015 2.896-.015 3.286 0 .315.21.69.825.57C20.565 22.092 24 17.592 24 12.297c0-6.627-5.373-12-12-12"></path>
  </symbol>
  <symbol role="img" xmlns="http://www.w3.org/2000/svg" viewBox="0 0 24 24" id="linkedin">
    <title>LinkedIn</title>
    <path d="M20.447 20.452h-3.554v-5.569c0-1.328-.027-3.037-1.852-3.037-1.853 0-2.136 1.445-2.136 2.939v5.667H9.351V9h3.414v1.561h.046c.477-.9 1.637-1.85 3.37-1.85 3.601 0 4.267 2.37 4.267 5.455v6.286zM5.337 7.433c-1.144 0-2.063-.926-2.063-2.065 0-1.138.92-2.063 2.063-2.063 1.14 0 2.064.925 2.064 2.063 0 1.139-.925 2.065-2.064 2.065zm1.782 13.019H3.555V9h3.564v11.452zM22.225 0H1.771C.792 0 0 .774 0 1.729v20.542C0 23.227.792 24 1.771 24h20.451C23.2 24 24 23.227 24 22.271V1.729C24 .774 23.2 0 22.222 0h.003z"></path>
  </symbol>
  <symbol role="img" xmlns="http://www.w3.org/2000/svg" viewBox="0 0 24 24" id="twitter">
    <title>Twitter</title>
    <path d="M23.953 4.57a10 10 0 01-2.825.775 4.958 4.958 0 002.163-2.723c-.951.555-2.005.959-3.127 1.184a4.92 4.92 0 00-8.384 4.482C7.69 8.095 4.067 6.13 1.64 3.162a4.822 4.822 0 00-.666 2.475c0 1.71.87 3.213 2.188 4.096a4.904 4.904 0 01-2.228-.616v.06a4.923 4.923 0 003.946 4.827 4.996 4.996 0 01-2.212.085 4.936 4.936 0 004.604 3.417 9.867 9.867 0 01-6.102 2.105c-.39 0-.779-.023-1.17-.067a13.995 13.995 0 007.557 2.209c9.053 0 13.998-7.496 13.998-13.985 0-.21 0-.42-.015-.63A9.935 9.935 0 0024 4.59z"></path>
  </symbol>
</svg>


